<svg style="width: 1.25em;height: 1em;vertical-align: middle;fill: currentColor;overflow: hidden;" viewBox="0 0 1280 1024" version="1.1" xmlns="http://www.w3.org/2000/svg"><path d="M128 64c0-17.8 7.6-41.8 12.4-54.6C142.4 3.6 148 0 154 0c3.8 0 7.6 1.4 10.4 4.2L256 91.4l91.6-87.2C350.4 1.4 354.2 0 358 0c6 0 11.6 3.6 13.6 9.4 4.8 13 12.4 36.8 12.4 54.6 0 53-43.8 84-59 93.2l152.4 145.2c12 11.4 27.8 17.6 44.2 17.6H1024c80.6 0 156.4 38 204.8 102.4l38.4 51.2c21.2 28.2 15.4 68.4-12.8 89.6s-68.4 15.4-89.6-12.8l-38.4-51.2c-10.6-14-23.6-25.6-38.4-34V640H384l-80.8-188.6c-7.8-18.4-30.6-25.2-47.2-14l-84.2 56c-18.2 12.2-39.4 18.6-61.4 18.6h-4C47.8 512 0 464.2 0 405.4c0-24.2 8.2-47.6 23.4-66.6l151.8-189.6C156.2 134.8 128 106.4 128 64z m768 640h192v256c0 35.4-28.6 64-64 64h-64c-35.4 0-64-28.6-64-64v-128H576v128c0 35.4-28.6 64-64 64h-64c-35.4 0-64-28.6-64-64V704h512zM521.8 421.8c-1.8-3.6-5.6-5.8-9.6-5.8s-7.8 2.2-9.6 5.8l-21 41-47 6.6c-4 0.6-7.4 3.2-8.6 7s-0.2 7.8 2.6 10.6l34 32-8 45.2c-0.6 3.8 1 7.8 4.2 10s7.6 2.6 11.2 0.8l42-21.4 42 21.4c3.6 1.8 8 1.6 11.2-0.8s5-6.2 4.2-10l-8-45.2 34-32c3-2.8 4-6.8 2.6-10.6s-4.6-6.4-8.6-7l-47-6.6-21-41z m214.4-5.8c-4 0-7.8 2.2-9.6 5.8l-21 41-47 6.6c-4 0.6-7.4 3.2-8.6 7s-0.2 7.8 2.6 10.6l34 32-8 45.2c-0.6 3.8 1 7.8 4.2 10s7.6 2.6 11.2 0.8l42-21.4 42 21.4c3.6 1.8 8 1.6 11.2-0.8s5-6.2 4.2-10l-8-45.2 34-32c3-2.8 4-6.8 2.8-10.6s-4.6-6.4-8.6-7l-47-6.6-21-41c-1.8-3.6-5.6-5.8-9.6-5.8z m233.6 5.8c-1.8-3.6-5.6-5.8-9.6-5.8s-7.8 2.2-9.6 5.8l-21 41-47 6.6c-4 0.6-7.4 3.2-8.6 7s-0.2 7.8 2.6 10.6l34 32-8 45.2c-0.6 3.8 1 7.8 4.2 10s7.6 2.6 11.2 0.8l42-21.4 42 21.4c3.6 1.8 8 1.6 11.2-0.8s5-6.2 4.2-10l-8-45.2 34-32c3-2.8 4-6.8 2.8-10.6s-4.6-6.4-8.6-7l-47-6.6-21-41z" /></svg>