<svg style="width: 1em;height: 1em;vertical-align: middle;fill: currentColor;overflow: hidden;" viewBox="0 0 1024 1024" version="1.1" xmlns="http://www.w3.org/2000/svg"><path d="M444.29999999 481.69999999H273c-115.10000001 0-208.8-93.70000001-208.8-208.79999998S157.8 64.09999999 273 64.09999999s208.8 93.70000001 208.8 208.80000002v171.29999999c0 20.70000001-16.8 37.50000001-37.50000001 37.50000001zM273 139c-73.8 0-133.90000001 60.10000001-133.90000001 133.90000001s60 133.90000001 133.90000001 133.89999999h133.90000001V272.89999999C406.8 199 346.8 139 273 139zM751 481.8H579.70000001c-20.70000001 0-37.50000001-16.8-37.50000001-37.50000001V273c0-115.10000001 93.70000001-208.8 208.8-208.8S959.8 157.8 959.8 273 866.2 481.8 751 481.8z m-133.8-74.90000001H751c73.8 0 133.90000001-60.10000001 133.90000001-133.89999999s-60-133.90000001-133.90000001-133.90000001-133.8 60-133.8 133.90000001v133.90000001zM273 959.90000001c-115.10000001 0-208.8-93.70000001-208.8-208.80000002S157.8 542.2 273 542.2h171.30000001c20.70000001 0 37.50000001 16.8 37.49999999 37.50000001V751c0 115.2-93.70000001 208.90000001-208.8 208.90000001z m0-342.70000001c-73.8 0-133.90000001 60.10000001-133.90000001 133.90000001s60 133.8 133.90000001 133.79999998 133.8-60 133.8-133.89999999V617.2H273zM751 959.90000001c-115.10000001 0-208.8-93.70000001-208.8-208.80000002V579.8c0-20.70000001 16.8-37.50000001 37.50000001-37.50000001H751c115.10000001 0 208.8 93.70000001 208.8 208.80000002S866.2 959.90000001 751 959.90000001zM617.2 617.2v133.90000001c0 73.90000001 60 133.90000001 133.8 133.89999999s133.90000001-60 133.90000001-133.90000001-60-133.90000001-133.90000001-133.89999999H617.2z" /></svg>