<svg style="width: 1em;height: 1em;vertical-align: middle;fill: currentColor;overflow: hidden;" viewBox="0 0 1024 1024" version="1.1" xmlns="http://www.w3.org/2000/svg"><path d="M952.682951 334.927575l-30.544917-16.978878c46.969209-66.934322 74.997157-167.527778 39.844906-317.948697 0 0-79.220546 214.539648-238.472188 207.458005l-186.426379-103.707672a49.955444 49.955444 0 0 0-22.866027-6.399075h-4.30871a50.46737 50.46737 0 0 0-22.951349 6.399075L300.489248 207.458005C141.237606 214.582308 62.01706 0 62.01706 0c-35.194911 150.420918-7.081643 251.014374 39.844906 317.948697l-30.544917 16.978878a48.334345 48.334345 0 0 0-25.127034 42.148573l0.938531 622.459336c0 8.660081 4.649994 16.722915 12.542187 20.946305a24.743089 24.743089 0 0 0 24.913731 0l247.004287-136.684238c15.613743-9.001365 25.127034-24.82841 25.127034-42.105912v-290.81662c0-17.320162 9.513291-33.40317 25.084373-41.97793l105.158129-58.530205a50.765993 50.765993 0 0 1 25.169694-6.569716c8.5321 0 17.362823 2.133025 24.956392 6.569716l105.158129 58.530205c15.571082 8.57476 25.084373 24.657768 25.084374 41.97793v290.81662c0 17.277502 9.641273 33.232528 25.169694 42.105912l246.918966 136.684238a25.169694 25.169694 0 0 0 25.127034 0 24.060521 24.060521 0 0 0 12.456865-20.946305l0.81055-622.459336a48.163703 48.163703 0 0 0-25.127034-42.148573z" /></svg>