<svg style="width: 1em;height: 1em;vertical-align: middle;fill: currentColor;overflow: hidden;" viewBox="0 0 1024 1024" version="1.1" xmlns="http://www.w3.org/2000/svg"><path d="M860.8768 266.8032l-310.9376-179.5072a75.8272 75.8272 0 0 0-75.8272 0L163.1232 266.752a76.1344 76.1344 0 0 0-37.9392 65.792v359.0144c0 27.0336 14.5408 52.224 37.9392 65.6896l310.9376 179.5584a76.2368 76.2368 0 0 0 75.8272-0.0512l310.9376-179.5072c23.3984-13.5168 37.9392-38.7072 37.9392-65.7408V332.544a75.8784 75.8784 0 0 0-37.888-65.7408z m-12.6464 424.704c0 9.0112-4.864 17.408-12.6464 21.9136l-310.9376 179.5072a25.3952 25.3952 0 0 1-25.2416 0L188.416 713.3696a25.2928 25.2928 0 0 1-12.6464-21.8624V332.544c0-9.0112 4.864-17.408 12.6464-21.9136L499.3536 131.072a25.3952 25.3952 0 0 1 25.2928 0.0512l310.9376 179.5072a25.2928 25.2928 0 0 1 12.6464 21.9136v358.9632z" fill="#212121" /><path d="M771.8912 334.4896l-259.2768 146.5344-259.2768-146.5344a25.6 25.6 0 1 0-25.1904 44.544l258.3552 146.0224v302.848a25.6 25.6 0 0 0 51.2 0v-302.2848l259.3792-146.5856a25.6 25.6 0 1 0-25.1904-44.544z" fill="#212121" /></svg>